<?xml version="1.0" encoding="utf-8"?>
<!-- Generator: Adobe Illustrator 16.0.0, SVG Export Plug-In . SVG Version: 6.00 Build 0)  -->
<!DOCTYPE svg PUBLIC "-//W3C//DTD SVG 1.1//EN" "http://www.w3.org/Graphics/SVG/1.1/DTD/svg11.dtd">
<svg version="1.1" id="Layer_1" xmlns="http://www.w3.org/2000/svg" xmlns:xlink="http://www.w3.org/1999/xlink" x="0px" y="0px"
	 width="143.333px" height="31.333px" viewBox="0 0 143.333 31.333" enable-background="new 0 0 143.333 31.333"
	 xml:space="preserve">
<g>
	<g>
		<path fill="#FFFFFF" d="M24.45,20.897v-9.993c0-0.009,0.001-0.019,0.001-0.03c0-0.902-0.825-2.363-2.388-2.363
			c-1.562,0-2.353,1.285-2.353,1.285l0.001,0.001L12.6,18.468c-0.36,0.393-0.776,0.03-0.776,0.03h-0.001l-7.001-8.72l0,0
			C4.718,9.625,3.919,8.511,2.435,8.511c-1.593,0-2.434,1.461-2.434,2.363c0,0.03,0.002,0.061,0.005,0.089v9.926
			C0.002,20.927,0,20.963,0,21.001c0,0.686,0.638,1.242,1.424,1.242c0.762,0,1.383-0.523,1.42-1.178h0.004v-8.928l6.869,8.554l0,0
			c1.188,1.517,3.317,2.337,4.969-0.014l6.92-8.438v8.826h0.003c0.039,0.655,0.66,1.178,1.421,1.178
			c0.788,0,1.424-0.556,1.424-1.242C24.456,20.967,24.454,20.933,24.45,20.897z"/>
		<path fill="#FFFFFF" d="M51.738,15.52c0-5.018-3.529-6.873-5.427-6.916h0H33.708l0,0.003c-1.916,0.092-5.345,1.966-5.345,6.913
			c0,4.958,3.007,6.608,5.386,6.63l0,0h12.63l0-0.002C48.754,22.116,51.738,20.458,51.738,15.52z M45.208,19.307H34.892
			c-2.95,0-3.659-1.735-3.659-3.805c0-2.217,0.93-4.058,3.474-4.058h10.687c2.544,0,3.475,1.841,3.475,4.058
			C48.868,17.572,48.158,19.307,45.208,19.307z"/>
		<path fill="#FFFFFF" d="M104.214,15.52c0-5.018-3.529-6.873-5.428-6.916h0.001H86.184l0,0.003
			c-1.917,0.092-5.345,1.966-5.345,6.913c0,4.958,3.007,6.608,5.385,6.63l0,0h12.63l-0.001-0.002
			C101.23,22.116,104.214,20.458,104.214,15.52z M97.684,19.307H87.369c-2.95,0-3.659-1.735-3.659-3.805
			c0-2.217,0.93-4.058,3.474-4.058H97.87c2.544,0,3.474,1.841,3.474,4.058C101.343,17.572,100.634,19.307,97.684,19.307z"/>
		<path fill="#FFFFFF" d="M77.531,19.627V9.444c0-0.005,0-0.007,0-0.013c0-0.686-0.636-1.242-1.421-1.242
			c-0.782,0-1.417,0.553-1.421,1.235h-0.001v8.741c0,0.006-0.001,0.012-0.001,0.019c0,0.324-0.184,0.779-0.732,0.376
			c-0.016-0.01-0.03-0.019-0.044-0.029L59.51,8.912c-0.098-0.08-0.574-0.406-1.803-0.401c-1.551,0.006-2.559,1.442-2.571,2.346
			h-0.003v10.209h0.003c0.039,0.655,0.659,1.178,1.421,1.178c0.786,0,1.424-0.556,1.424-1.242c0-0.036-0.003-0.071-0.006-0.107
			v-8.519c0-0.3,0.161-0.716,0.628-0.443l14.493,9.696c0.144,0.104,0.645,0.387,1.813,0.382c1.593-0.007,2.623-1.462,2.623-2.365
			C77.531,19.639,77.531,19.635,77.531,19.627z"/>
	</g>
	<g>
		<path fill="#FFFFFF" d="M130.998,12.417c1.326-0.811,2.357-1.841,3.094-3.02c0-0.147,0-0.221,0-0.368
			c0-1.326,0.663-2.504,1.768-3.241l0,0l0,0c0.589-0.368,1.252-0.59,2.063-0.59c2.063,0,3.83,1.695,3.83,3.831
			c0,0.957-0.368,1.841-0.958,2.504l0,0l0,0c-0.736,0.81-1.767,1.326-2.872,1.326c-0.516,0-1.031-0.148-1.474-0.369
			c-1.621,0.442-3.167,1.032-4.42,1.916c0.147,0.515,0.221,1.031,0.221,1.547c0,0.883-0.221,1.768-0.589,2.504
			c0.737,1.104,1.769,1.694,3.167,1.768c0.295-0.074,0.589-0.074,0.884-0.074c0.958,0,1.841,0.369,2.505,0.958l0,0l0,0
			c0.81,0.663,1.325,1.694,1.325,2.873c0,2.063-1.694,3.756-3.83,3.756c-0.958,0-1.842-0.294-2.504-0.883l0,0l0,0
			c-0.81-0.737-1.252-1.769-1.252-2.873c0-0.147,0-0.221,0-0.368c-0.516-1.4-1.399-2.284-2.652-2.726
			c-0.811,0.441-1.694,0.737-2.725,0.737c-1.105,0-2.136-0.369-3.021-0.884c-1.547,0.958-2.872,2.21-3.756,3.904
			c0.073,0.294,0.147,0.589,0.147,0.957c0,1.106-0.442,2.063-1.179,2.8l0,0l0,0c-0.736,0.589-1.621,1.031-2.651,1.031
			c-2.063,0-3.831-1.768-3.831-3.831c0-0.883,0.368-1.694,0.811-2.357l0,0l0,0c0.737-0.884,1.841-1.473,3.021-1.473
			c0.294,0,0.588,0.074,0.884,0.074c1.989-0.811,3.536-1.842,4.714-3.094c-0.516-0.81-0.811-1.769-0.811-2.799
			c0-1.032,0.294-1.989,0.737-2.8c-1.031-1.915-2.579-3.388-4.641-4.566c-0.221,0-0.516,0.073-0.811,0.073
			c-1.4,0-2.578-0.736-3.241-1.841l0,0l0,0c-0.368-0.589-0.589-1.253-0.589-1.989c0-2.063,1.694-3.831,3.83-3.831
			c1.179,0,2.137,0.516,2.873,1.326l0,0l0,0c0.589,0.663,0.958,1.547,0.958,2.504c0,0.442-0.074,0.883-0.221,1.326
			c0.663,2.136,1.842,3.904,3.462,5.23c0.957-0.663,2.136-1.105,3.315-1.105C128.346,10.281,129.966,11.092,130.998,12.417
			L130.998,12.417z"/>
	</g>
</g>
</svg>
