<?xml version="1.0" encoding="utf-8"?>
<!-- Generator: Adobe Illustrator 16.0.0, SVG Export Plug-In . SVG Version: 6.00 Build 0)  -->
<!DOCTYPE svg PUBLIC "-//W3C//DTD SVG 1.1//EN" "http://www.w3.org/Graphics/SVG/1.1/DTD/svg11.dtd">
<svg version="1.1" id="Layer_1" xmlns="http://www.w3.org/2000/svg" xmlns:xlink="http://www.w3.org/1999/xlink" x="0px" y="0px"
	 width="32px" height="32px" viewBox="2 4 32 32" enable-background="new 2 4 32 32" xml:space="preserve">
<g>
	<g>
		<g>
			<path fill="#F42434" d="M18.001,23.98l-6.228-6.228l6.228-6.227l6.226,6.227L18.001,23.98z M15.232,17.752L18,20.52l2.768-2.768
				L18,14.984L15.232,17.752z"/>
		</g>
	</g>
	<g>
		<g>
			<path fill="#F42434" d="M18.001,32.973L2.779,17.752L13.503,7.027L18,11.525l4.496-4.498l10.725,10.725L18.001,32.973z
				 M6.238,17.752L18,29.514l11.762-11.762l-7.266-7.264l-2.768,2.767l4.498,4.498l-6.226,6.229l-6.228-6.229l4.498-4.498
				l-2.769-2.767L6.238,17.752z M15.232,17.752L18,20.52l2.768-2.768L18,14.984L15.232,17.752z"/>
		</g>
	</g>
</g>
</svg>
